<?xml version="1.0" encoding="utf-8"?>
<!-- Generator: Adobe Illustrator 21.1.0, SVG Export Plug-In . SVG Version: 6.00 Build 0)  -->
<svg version="1.1" id="Ebene_2" xmlns="http://www.w3.org/2000/svg" xmlns:xlink="http://www.w3.org/1999/xlink" 
	 x="0px" y="0px" viewBox="-2582.75 -200.516 980.312 980.33" enable-background="new -2582.75 -200.516 980.312 980.33"
	 xml:space="preserve">
<path fill-rule="evenodd" clip-rule="evenodd" fill="#29AAE2" d="M-2582.733,289.658c-0.002-129.97-0.036-259.935,0.013-389.905
	c0.024-65.096,34.634-100.212,99.002-100.225c260.682-0.062,521.361-0.057,782.042,0c64.192,0.013,99.185,35.356,99.198,100.198
	c0.054,259.931,0.056,519.864-0.002,779.799c-0.016,65.696-35.024,100.257-101.379,100.265c-259.188,0.031-518.372,0.031-777.561,0
	c-66.479-0.008-101.258-34.397-101.293-100.233C-2582.781,549.591-2582.733,419.623-2582.733,289.658z M-2045.169,217.007
	c0-9.959,0.029-14.424-0.004-18.893c-0.257-33.675-6.856-40.285-40.701-40.386c-29.866-0.092-59.737-0.333-89.599,0.092
	c-24.167,0.341-33.195,8.698-33.232,31.907c-0.232,150.828-0.252,301.655,0.017,452.483c0.04,22.635,8.694,30.619,31.562,30.873
	c32.102,0.354,64.211,0.228,96.318,0.063c28.021-0.146,35.572-7.766,35.606-36.023c0.094-76.906-1.739-153.878,1.005-230.689
	c0.945-26.5,9.403-54.41,21.091-78.438c15.959-32.809,47.994-39.914,82.392-35.751c31.956,3.87,51.673,23.66,59.647,53.002
	c5.983,22.027,8.83,45.484,9.175,68.361c1.12,74.651,0.396,149.325,0.499,223.991c0.044,30.73,5.445,35.961,36.852,36.049
	c32.107,0.092,64.214,0.165,96.321-0.031c27.062-0.166,33.914-7.161,33.955-34.813c0.109-70.188,1.116-140.397-0.396-210.554
	c-0.929-43.111-2.483-86.715-9.703-129.083c-11.807-69.281-46.632-124.577-119.633-140.896
	C-1911.275,140.997-1985.744,145.624-2045.169,217.007z M-2441.018,414.596c0,73.94-0.075,147.874,0.037,221.808
	c0.042,28.476,7.801,36.569,35.083,36.737c31.367,0.187,62.735,0.292,94.099-0.044c24.065-0.259,33.294-9.72,33.316-34.487
	c0.138-148.617,0.151-297.233-0.009-445.854c-0.026-25.145-9.871-34.656-35.586-34.959c-29.869-0.354-59.745-0.263-89.616-0.039
	c-28.945,0.219-37.254,8.544-37.293,37.273C-2441.084,268.222-2441.021,341.413-2441.018,414.596z M-2360.33-94.328
	c-58.961-0.157-106.634,46.151-106.721,103.675c-0.09,59.559,47.04,107.698,105.614,107.872
	c58.357,0.175,105.901-46.615,106.128-104.454C-2255.069-48.112-2300.232-94.171-2360.33-94.328z"/>
</svg>